<svg xmlns="http://www.w3.org/2000/svg" width="20" height="20" viewBox="0 0 20 20">
    <g fill="none" fill-rule="evenodd">
        <path fill-rule="nonzero" d="M0 0H20V20H0z"/>
        <path fill="#FFF" d="M10 17.5c4.142 0 7.5-3.358 7.5-7.5 0-4.142-3.358-7.5-7.5-7.5-4.142 0-7.5 3.358-7.5 7.5 0 4.142 3.358 7.5 7.5 7.5zm0 1.667C4.937 19.167.833 15.063.833 10S4.937.833 10 .833 19.167 4.937 19.167 10 15.063 19.167 10 19.167zM10 8.82l2.357-2.357 1.179 1.179L11.179 10l2.357 2.357-1.179 1.179L10 11.179l-2.357 2.357-1.179-1.179L8.821 10 6.464 7.643l1.179-1.179L10 8.821z"/>
    </g>
</svg>
